<svg xmlns="http://www.w3.org/2000/svg" viewBox="0 0 1116 1410">
<g transform="translate(0.000000,1410.000000) scale(0.100000,-0.100000)">
<path fill="#cad9d5" fill-rule="evenodd" d="M5075 13280 c-3 -5 0 -7 9 -4 16 6 21 -8 29 -71 3 -26 4 -25 6 8 2
56 -25 97 -44 67z M5061 13244 c0 -11 3 -14 6 -6 3 7 2 16 -1 19 -3 4 -6 -2
-5 -13z M5051 13204 c0 -11 3 -14 6 -6 3 7 2 16 -1 19 -3 4 -6 -2 -5 -13z
M5041 13154 c0 -11 3 -14 6 -6 3 7 2 16 -1 19 -3 4 -6 -2 -5 -13z M5123 13130
c0 -25 2 -35 4 -22 2 12 2 32 0 45 -2 12 -4 2 -4 -23z M5031 13104 c0 -11 3
-14 6 -6 3 7 2 16 -1 19 -3 4 -6 -2 -5 -13z M5021 13054 c0 -11 3 -14 6 -6 3
7 2 16 -1 19 -3 4 -6 -2 -5 -13z M5133 13035 c0 -22 2 -30 4 -17 2 12 2 30 0
40 -3 9 -5 -1 -4 -23z M5011 13004 c0 -11 3 -14 6 -6 3 7 2 16 -1 19 -3 4 -6
-2 -5 -13z M5142 12965 c0 -16 2 -22 5 -12 2 9 2 23 0 30 -3 6 -5 -1 -5 -18z
M5001 12954 c0 -11 3 -14 6 -6 3 7 2 16 -1 19 -3 4 -6 -2 -5 -13z M5152 12910
c0 -14 2 -19 5 -12 2 6 2 18 0 25 -3 6 -5 1 -5 -13z M4991 12904 c0 -11 3 -14
6 -6 3 7 2 16 -1 19 -3 4 -6 -2 -5 -13z M5161 12864 c0 -11 3 -14 6 -6 3 7 2
16 -1 19 -3 4 -6 -2 -5 -13z M4981 12854 c0 -11 3 -14 6 -6 3 7 2 16 -1 19 -3
4 -6 -2 -5 -13z M5171 12824 c0 -11 3 -14 6 -6 3 7 2 16 -1 19 -3 4 -6 -2 -5
-13z M4971 12814 c0 -11 3 -14 6 -6 3 7 2 16 -1 19 -3 4 -6 -2 -5 -13z M5191
12760 c0 -8 4 -22 9 -30 12 -18 12 -2 0 25 -6 13 -9 15 -9 5z M4951 12724 c0
-11 3 -14 6 -6 3 7 2 16 -1 19 -3 4 -6 -2 -5 -13z M5240 12650 c6 -11 13 -20
16 -20 2 0 0 9 -6 20 -6 11 -13 20 -16 20 -2 0 0 -9 6 -20z M5270 12601 c5
-11 15 -23 21 -27 6 -3 3 5 -6 20 -20 30 -30 35 -15 7z M5360 12495 c35 -36
67 -65 69 -65 3 0 -24 29 -59 65 -35 36 -67 65 -69 65 -3 0 24 -29 59 -65z
M4901 12514 c0 -11 3 -14 6 -6 3 7 2 16 -1 19 -3 4 -6 -2 -5 -13z M5455 12410
c10 -11 20 -20 23 -20 3 0 -3 9 -13 20 -10 11 -20 20 -23 20 -3 0 3 -9 13 -20z
M4871 12374 c0 -11 3 -14 6 -6 3 7 2 16 -1 19 -3 4 -6 -2 -5 -13z M5550 12346
c0 -3 9 -10 20 -16 11 -6 20 -8 20 -6 0 3 -9 10 -20 16 -11 6 -20 8 -20 6z
M4862 12310 c0 -14 2 -19 5 -12 2 6 2 18 0 25 -3 6 -5 1 -5 -13z M5650 12286
c0 -3 14 -12 30 -21 17 -9 30 -13 30 -11 0 3 -13 12 -30 21 -16 9 -30 13 -30
11z M4853 12215 c0 -27 2 -38 4 -22 2 15 2 37 0 50 -2 12 -4 0 -4 -28z M5910
12150 c8 -5 20 -10 25 -10 6 0 3 5 -5 10 -8 5 -19 10 -25 10 -5 0 -3 -5 5 -10z
M4853 12065 c0 -22 2 -30 4 -17 2 12 2 30 0 40 -3 9 -5 -1 -4 -23z M6060
12080 c8 -5 20 -10 25 -10 6 0 3 5 -5 10 -8 5 -19 10 -25 10 -5 0 -3 -5 5 -10z
M6150 12040 c8 -5 20 -10 25 -10 6 0 3 5 -5 10 -8 5 -19 10 -25 10 -5 0 -3 -5
5 -10z M4861 11994 c0 -11 3 -14 6 -6 3 7 2 16 -1 19 -3 4 -6 -2 -5 -13z
M6240 12000 c8 -5 20 -10 25 -10 6 0 3 5 -5 10 -8 5 -19 10 -25 10 -5 0 -3 -5
5 -10z M6350 11950 c8 -5 20 -10 25 -10 6 0 3 5 -5 10 -8 5 -19 10 -25 10 -5
0 -3 -5 5 -10z M6440 11910 c8 -5 20 -10 25 -10 6 0 3 5 -5 10 -8 5 -19 10
-25 10 -5 0 -3 -5 5 -10z M6550 11860 c8 -5 20 -10 25 -10 6 0 3 5 -5 10 -8 5
-19 10 -25 10 -5 0 -3 -5 5 -10z M4910 11831 c0 -6 4 -13 10 -16 6 -3 7 1 4 9
-7 18 -14 21 -14 7z M6640 11820 c8 -5 20 -10 25 -10 6 0 3 5 -5 10 -8 5 -19
10 -25 10 -5 0 -3 -5 5 -10z M6770 11760 c8 -5 20 -10 25 -10 6 0 3 5 -5 10
-8 5 -19 10 -25 10 -5 0 -3 -5 5 -10z M4985 11710 c10 -11 20 -20 23 -20 3 0
-3 9 -13 20 -10 11 -20 20 -23 20 -3 0 3 -9 13 -20z M6890 11705 c14 -8 30
-14 35 -14 6 0 -1 6 -15 14 -14 8 -29 14 -35 14 -5 0 1 -6 15 -14z M5020
11667 c0 -2 15 -16 33 -33 l32 -29 -29 33 c-28 30 -36 37 -36 29z M7020 11645
c14 -8 30 -14 35 -14 6 0 -1 6 -15 14 -14 8 -29 14 -35 14 -5 0 1 -6 15 -14z
M5115 11580 c10 -11 20 -20 23 -20 3 0 -3 9 -13 20 -10 11 -20 20 -23 20 -3 0
3 -9 13 -20z M7190 11565 c14 -8 30 -14 35 -14 6 0 -1 6 -15 14 -14 8 -29 14
-35 14 -5 0 1 -6 15 -14z M5150 11556 c0 -2 8 -10 18 -17 15 -13 16 -12 3 4
-13 16 -21 21 -21 13z M7247 11539 c7 -7 15 -10 18 -7 3 3 -2 9 -12 12 -14 6
-15 5 -6 -5z M5197 11519 c12 -15 73 -53 73 -46 0 2 -19 17 -42 32 -24 16 -38
22 -31 14z M5295 11455 c11 -9 29 -21 40 -26 l20 -10 -20 16 c-11 9 -29 21
-40 26 l-20 10 20 -16z M7440 11445 c0 -2 27 -18 60 -35 33 -17 60 -28 60 -25
0 2 -27 18 -60 35 -33 17 -60 28 -60 25z M5380 11406 c0 -3 14 -12 30 -21 17
-9 30 -13 30 -11 0 3 -13 12 -30 21 -16 9 -30 13 -30 11z M5470 11355 c0 -2
23 -16 50 -30 28 -14 50 -23 50 -20 0 2 -22 16 -50 30 -27 14 -50 23 -50 20z
M7610 11356 c0 -3 14 -12 30 -21 17 -9 30 -13 30 -11 0 3 -13 12 -30 21 -16 9
-30 13 -30 11z M7700 11306 c0 -3 9 -10 20 -16 11 -6 20 -8 20 -6 0 3 -9 10
-20 16 -11 6 -20 8 -20 6z M5580 11296 c0 -2 7 -7 16 -10 8 -3 12 -2 9 4 -6
10 -25 14 -25 6z M7770 11266 c0 -3 9 -10 20 -16 11 -6 20 -8 20 -6 0 3 -9 10
-20 16 -11 6 -20 8 -20 6z M7820 11236 c0 -3 9 -10 20 -16 11 -6 20 -8 20 -6
0 3 -9 10 -20 16 -11 6 -20 8 -20 6z M5820 11175 c36 -19 70 -34 75 -34 6 0
-19 15 -55 34 -36 19 -69 34 -75 34 -5 0 19 -15 55 -34z M7870 11206 c0 -3 9
-10 20 -16 11 -6 20 -8 20 -6 0 3 -9 10 -20 16 -11 6 -20 8 -20 6z M7980
11137 c0 -2 26 -21 58 -41 31 -20 45 -27 30 -14 -30 26 -88 62 -88 55z M5970
11105 c25 -13 50 -24 55 -24 6 0 -10 11 -35 24 -25 13 -49 24 -55 24 -5 0 10
-11 35 -24z M6090 11050 c19 -11 40 -19 45 -19 6 0 -6 8 -25 19 -19 11 -39 19
-45 19 -5 0 6 -8 25 -19z M8100 11056 c0 -2 14 -14 30 -26 17 -12 30 -19 30
-16 0 2 -13 14 -30 26 -16 12 -30 19 -30 16z M4885 11025 c-229 -41 -458 -140
-700 -301 -443 -295 -1084 -1009 -1506 -1679 -151 -239 -304 -527 -398 -747
-210 -494 -334 -1122 -318 -1613 18 -563 164 -1088 422 -1515 116 -193 219
-323 409 -517 l109 -113 29 73 c55 141 198 414 288 552 118 180 214 300 365
455 l122 125 12 85 c54 376 127 754 198 1014 144 536 428 1010 766 1279 195
157 469 294 720 361 50 14 192 46 315 71 274 57 443 103 567 153 185 77 341
184 403 277 63 95 27 206 -108 328 -162 146 -497 250 -815 251 l-150 1 -67
-33 c-46 -22 -83 -51 -117 -89 -55 -62 -123 -190 -125 -234 -1 -16 -5 -29 -10
-29 -4 0 -5 -12 -2 -26 5 -18 3 -24 -5 -18 -8 5 -10 -2 -7 -25 2 -17 1 -31 -4
-31 -4 0 -8 -6 -8 -13 0 -22 -34 -47 -62 -47 -14 0 -36 9 -49 19 -21 17 -24
27 -22 79 8 211 171 1017 232 1148 93 200 298 275 661 245 152 -13 338 -48
462 -87 325 -102 482 -293 519 -634 18 -166 -7 -362 -110 -870 -121 -597 -187
-759 -397 -960 -191 -183 -342 -249 -819 -355 -569 -126 -811 -210 -1034 -359
-312 -208 -561 -565 -712 -1018 -40 -123 -83 -313 -74 -328 3 -5 48 24 100 65
322 251 722 487 1430 843 721 362 1024 559 1396 904 437 407 721 796 1149
1578 125 229 145 260 166 260 19 0 19 -100 -1 -213 -8 -47 -12 -93 -9 -101 4
-9 1 -16 -6 -16 -9 0 -11 -10 -6 -32 3 -17 3 -28 -1 -24 -9 8 -45 -173 -38
-191 2 -7 1 -13 -3 -13 -4 0 -16 -42 -26 -92 -46 -230 -82 -334 -185 -533
-189 -366 -400 -732 -543 -943 -212 -311 -470 -600 -733 -823 -283 -239 -522
-385 -1268 -773 -712 -370 -1021 -550 -1354 -784 l-93 -65 0 -166 c0 -91 5
-247 10 -346 19 -370 35 -619 38 -597 2 12 6 22 9 22 3 0 74 -31 157 -69 83
-38 193 -84 244 -102 l92 -33 0 -45 c0 -24 3 -42 6 -38 3 3 0 147 -6 321 -7
173 -9 348 -5 388 6 69 8 74 43 99 21 14 78 55 127 91 124 89 506 353 773 533
953 642 1204 822 1632 1164 357 285 683 572 905 795 415 416 715 842 891 1261
36 84 38 98 42 214 14 437 -130 843 -434 1222 -111 138 -375 387 -417 393 -8
1 -25 9 -38 18 -35 22 -162 86 -249 123 -41 18 -248 119 -460 223 -541 267
-668 314 -1010 373 -221 38 -303 60 -465 124 -154 61 -255 89 -390 110 -120
18 -353 18 -450 0z M6229 10990 c46 -23 85 -39 87 -37 2 2 -28 19 -68 36 -106
48 -116 48 -19 1z M8170 11006 c0 -2 8 -10 18 -17 15 -13 16 -12 3 4 -13 16
-21 21 -21 13z M8220 10966 c0 -2 8 -10 18 -17 15 -13 16 -12 3 4 -13 16 -21
21 -21 13z M6390 10915 c25 -13 50 -24 55 -24 6 0 -10 11 -35 24 -25 13 -49
24 -55 24 -5 0 10 -11 35 -24z M8280 10915 c13 -14 26 -25 28 -25 3 0 -5 11
-18 25 -13 14 -26 25 -28 25 -3 0 5 -11 18 -25z M6490 10870 c19 -11 40 -19
45 -19 6 0 -6 8 -25 19 -19 11 -39 19 -45 19 -5 0 6 -8 25 -19z M8360 10848
c41 -45 50 -53 50 -45 0 2 -21 23 -47 47 l-48 45 45 -47z M6610 10815 c14 -8
30 -14 35 -14 6 0 -1 6 -15 14 -14 8 -29 14 -35 14 -5 0 1 -6 15 -14z M6667
10789 c7 -7 15 -10 18 -7 3 3 -2 9 -12 12 -14 6 -15 5 -6 -5z M8460 10755 c13
-14 26 -25 28 -25 3 0 -5 11 -18 25 -13 14 -26 25 -28 25 -3 0 5 -11 18 -25z
M6721 10766 c10 -9 449 -226 449 -221 0 3 -99 54 -220 115 -194 97 -245 120
-229 106z M8545 10660 c21 -22 41 -40 44 -40 3 0 -13 18 -34 40 -21 22 -41 40
-44 40 -3 0 13 -18 34 -40z M8605 10590 c10 -11 20 -20 23 -20 3 0 -3 9 -13
20 -10 11 -20 20 -23 20 -3 0 3 -9 13 -20z M8645 10540 c10 -11 20 -20 23 -20
3 0 -3 9 -13 20 -10 11 -20 20 -23 20 -3 0 3 -9 13 -20z M7200 10525 c0 -2 23
-16 50 -30 28 -14 50 -23 50 -20 0 2 -22 16 -50 30 -27 14 -50 23 -50 20z
M8670 10506 c0 -2 8 -10 18 -17 15 -13 16 -12 3 4 -13 16 -21 21 -21 13z
M8715 10446 c10 -14 19 -26 22 -26 7 0 -17 39 -28 46 -6 3 -3 -5 6 -20z M7330
10456 c0 -3 14 -12 30 -21 17 -9 30 -13 30 -11 0 3 -13 12 -30 21 -16 9 -30
13 -30 11z M7400 10416 c0 -3 14 -12 30 -21 17 -9 30 -13 30 -11 0 3 -13 12
-30 21 -16 9 -30 13 -30 11z M7470 10376 c0 -3 9 -10 20 -16 11 -6 20 -8 20
-6 0 3 -9 10 -20 16 -11 6 -20 8 -20 6z M8770 10360 c6 -11 13 -20 16 -20 2 0
0 9 -6 20 -6 11 -13 20 -16 20 -2 0 0 -9 6 -20z M7520 10346 c0 -3 9 -10 20
-16 11 -6 20 -8 20 -6 0 3 -9 10 -20 16 -11 6 -20 8 -20 6z M8810 10290 c11
-22 23 -40 25 -40 3 0 -4 18 -15 40 -11 22 -23 40 -25 40 -3 0 4 -18 15 -40z
M7615 10285 c11 -9 29 -21 40 -26 l20 -10 -20 16 c-11 9 -29 21 -40 26 l-20
10 20 -16z M8856 10207 c3 -10 9 -15 12 -12 3 3 0 11 -7 18 -10 9 -11 8 -5 -6z
M7770 10186 c0 -2 14 -14 30 -26 17 -12 30 -19 30 -16 0 2 -13 14 -30 26 -16
12 -30 19 -30 16z M8880 10155 c0 -5 5 -17 10 -25 5 -8 10 -10 10 -5 0 6 -5
17 -10 25 -5 8 -10 11 -10 5z M7842 10134 c4 -5 28 -25 54 -44 26 -18 45 -29
42 -24 -4 5 -28 25 -54 44 -26 18 -45 29 -42 24z M8901 10105 c0 -5 6 -21 14
-35 8 -14 14 -20 14 -15 0 6 -6 21 -14 35 -8 14 -14 21 -14 15z M8981 9874 c0
-11 3 -14 6 -6 3 7 2 16 -1 19 -3 4 -6 -2 -5 -13z M8992 9840 c0 -8 4 -26 8
-40 6 -20 8 -21 8 -5 0 11 -3 29 -8 40 -5 12 -8 14 -8 5z M9011 9754 c0 -11 3
-14 6 -6 3 7 2 16 -1 19 -3 4 -6 -2 -5 -13z M9022 9705 c0 -16 2 -22 5 -12 2
9 2 23 0 30 -3 6 -5 -1 -5 -18z M9032 9635 c0 -16 2 -22 5 -12 2 9 2 23 0 30
-3 6 -5 -1 -5 -18z M9043 9540 c0 -25 2 -35 4 -22 2 12 2 32 0 45 -2 12 -4 2
-4 -23z M9052 9307 c-4 -267 -28 -455 -143 -1087 -61 -337 -103 -512 -178
-740 -154 -465 -405 -900 -776 -1347 -183 -220 -553 -581 -841 -820 -477 -395
-1393 -1063 -2132 -1554 -219 -145 -307 -209 -295 -213 353 -102 695 -172
1013 -208 151 -16 575 -16 710 0 373 47 694 143 1000 300 494 253 896 676
1329 1400 142 238 267 472 502 942 329 658 443 918 505 1155 36 137 37 145 38
325 0 209 -11 291 -75 527 -118 439 -370 920 -613 1175 l-35 36 -4 134 -3 133
-2 -158z M3494 4647 c-114 -119 -331 -385 -297 -364 6 4 13 4 15 -1 4 -9 177
-131 265 -187 l62 -40 4 -85 c1 -47 4 14 5 135 2 121 7 308 12 415 4 107 7
196 6 197 -2 2 -34 -30 -72 -70z M2811 4284 c0 -11 3 -14 6 -6 3 7 2 16 -1 19
-3 4 -6 -2 -5 -13z M3060 4080 c-6 -11 -8 -20 -6 -20 3 0 10 9 16 20 6 11 8
20 6 20 -3 0 -10 -9 -16 -20z M3020 4010 c-6 -11 -8 -20 -6 -20 3 0 10 9 16
20 6 11 8 20 6 20 -3 0 -10 -9 -16 -20z M2721 3944 c0 -11 3 -14 6 -6 3 7 2
16 -1 19 -3 4 -6 -2 -5 -13z M2972 3915 c-17 -37 -14 -45 4 -12 9 16 14 31 11
33 -2 2 -9 -7 -15 -21z M2711 3904 c0 -11 3 -14 6 -6 3 7 2 16 -1 19 -3 4 -6
-2 -5 -13z M2701 3854 c0 -11 3 -14 6 -6 3 7 2 16 -1 19 -3 4 -6 -2 -5 -13z
M2691 3814 c0 -11 3 -14 6 -6 3 7 2 16 -1 19 -3 4 -6 -2 -5 -13z M2906 3775
c-9 -26 -7 -32 5 -12 6 10 9 21 6 23 -2 3 -7 -2 -11 -11z M2681 3764 c0 -11 3
-14 6 -6 3 7 2 16 -1 19 -3 4 -6 -2 -5 -13z M3554 3670 c0 -63 1 -89 3 -57 2
31 2 83 0 115 -2 31 -3 5 -3 -58z M3892 3720 c0 -19 2 -27 5 -17 2 9 2 25 0
35 -3 9 -5 1 -5 -18z M2886 3725 c-9 -26 -7 -32 5 -12 6 10 9 21 6 23 -2 3 -7
-2 -11 -11z M2671 3714 c0 -11 3 -14 6 -6 3 7 2 16 -1 19 -3 4 -6 -2 -5 -13z
M2662 3670 c0 -14 2 -19 5 -12 2 6 2 18 0 25 -3 6 -5 1 -5 -13z M2856 3655
c-9 -26 -7 -32 5 -12 6 10 9 21 6 23 -2 3 -7 -2 -11 -11z M3902 3620 c0 -19 2
-27 5 -17 2 9 2 25 0 35 -3 9 -5 1 -5 -18z M2652 3620 c0 -14 2 -19 5 -12 2 6
2 18 0 25 -3 6 -5 1 -5 -13z M2642 3570 c0 -14 2 -19 5 -12 2 6 2 18 0 25 -3
6 -5 1 -5 -13z M3913 3515 c0 -22 2 -30 4 -17 2 12 2 30 0 40 -3 9 -5 -1 -4
-23z M4403 3485 c0 -38 2 -53 4 -32 2 20 2 52 0 70 -2 17 -4 1 -4 -38z M2632
3520 c0 -14 2 -19 5 -12 2 6 2 18 0 25 -3 6 -5 1 -5 -13z M4672 3490 c0 -14 2
-19 5 -12 2 6 2 18 0 25 -3 6 -5 1 -5 -13z M3563 3420 c0 -41 2 -58 4 -37 2
20 2 54 0 75 -2 20 -4 3 -4 -38z M2622 3460 c0 -14 2 -19 5 -12 2 6 2 18 0 25
-3 6 -5 1 -5 -13z M3923 3415 c0 -22 2 -30 4 -17 2 12 2 30 0 40 -3 9 -5 -1
-4 -23z M4681 3424 c0 -11 3 -14 6 -6 3 7 2 16 -1 19 -3 4 -6 -2 -5 -13z
M2612 3410 c0 -14 2 -19 5 -12 2 6 2 18 0 25 -3 6 -5 1 -5 -13z M4413 3320 c0
-41 2 -58 4 -37 2 20 2 54 0 75 -2 20 -4 3 -4 -38z M4692 3360 c0 -14 2 -19 5
-12 2 6 2 18 0 25 -3 6 -5 1 -5 -13z M2601 3344 c0 -11 3 -14 6 -6 3 7 2 16
-1 19 -3 4 -6 -2 -5 -13z M3933 3315 c0 -22 2 -30 4 -17 2 12 2 30 0 40 -3 9
-5 -1 -4 -23z M3573 3255 c0 -38 2 -53 4 -32 2 20 2 52 0 70 -2 17 -4 1 -4
-38z M4701 3294 c0 -11 3 -14 6 -6 3 7 2 16 -1 19 -3 4 -6 -2 -5 -13z M2592
3280 c0 -14 2 -19 5 -12 2 6 2 18 0 25 -3 6 -5 1 -5 -13z M4712 3240 c0 -14 2
-19 5 -12 2 6 2 18 0 25 -3 6 -5 1 -5 -13z M3942 3220 c0 -19 2 -27 5 -17 2 9
2 25 0 35 -3 9 -5 1 -5 -18z M2582 3205 c0 -16 2 -22 5 -12 2 9 2 23 0 30 -3
6 -5 -1 -5 -18z M4423 3145 c0 -44 2 -61 4 -37 2 23 2 59 0 80 -2 20 -4 1 -4
-43z M4721 3184 c0 -11 3 -14 6 -6 3 7 2 16 -1 19 -3 4 -6 -2 -5 -13z M2572
3130 c0 -19 2 -27 5 -17 2 9 2 25 0 35 -3 9 -5 1 -5 -18z M3952 3130 c0 -19 2
-27 5 -17 2 9 2 25 0 35 -3 9 -5 1 -5 -18z M3583 3105 c0 -27 2 -38 4 -22 2
15 2 37 0 50 -2 12 -4 0 -4 -28z M4731 3124 c0 -11 3 -14 6 -6 3 7 2 16 -1 19
-3 4 -6 -2 -5 -13z M4741 3074 c0 -11 3 -14 6 -6 3 7 2 16 -1 19 -3 4 -6 -2
-5 -13z M3963 3045 c0 -22 2 -30 4 -17 2 12 2 30 0 40 -3 9 -5 -1 -4 -23z
M2563 3035 c0 -22 2 -30 4 -17 2 12 2 30 0 40 -3 9 -5 -1 -4 -23z M4433 2985
c0 -38 2 -53 4 -32 2 20 2 52 0 70 -2 17 -4 1 -4 -38z M4751 3014 c0 -11 3
-14 6 -6 3 7 2 16 -1 19 -3 4 -6 -2 -5 -13z M3593 2980 c0 -25 2 -35 4 -22 2
12 2 32 0 45 -2 12 -4 2 -4 -23z M3972 2960 c0 -19 2 -27 5 -17 2 9 2 25 0 35
-3 9 -5 1 -5 -18z M2554 2880 c0 -58 1 -81 3 -52 2 28 2 76 0 105 -2 28 -3 5
-3 -53z M4771 2904 c0 -11 3 -14 6 -6 3 7 2 16 -1 19 -3 4 -6 -2 -5 -13z
M3603 2865 c0 -27 2 -38 4 -22 2 15 2 37 0 50 -2 12 -4 0 -4 -28z M3982 2885
c0 -16 2 -22 5 -12 2 9 2 23 0 30 -3 6 -5 -1 -5 -18z M4443 2835 c0 -33 2 -45
4 -27 2 18 2 45 0 60 -2 15 -4 0 -4 -33z M4781 2854 c0 -11 3 -14 6 -6 3 7 2
16 -1 19 -3 4 -6 -2 -5 -13z M3993 2805 c0 -22 2 -30 4 -17 2 12 2 30 0 40 -3
9 -5 -1 -4 -23z M4791 2794 c0 -11 3 -14 6 -6 3 7 2 16 -1 19 -3 4 -6 -2 -5
-13z M3612 2760 c0 -19 2 -27 5 -17 2 9 2 25 0 35 -3 9 -5 1 -5 -18z M4002
2730 c0 -19 2 -27 5 -17 2 9 2 25 0 35 -3 9 -5 1 -5 -18z M4802 2720 c0 -19 2
-27 5 -17 2 9 2 25 0 35 -3 9 -5 1 -5 -18z M4453 2660 c0 -36 2 -50 4 -32 2
17 2 47 0 65 -2 17 -4 3 -4 -33z M3623 2660 c0 -25 2 -35 4 -22 2 12 2 32 0
45 -2 12 -4 2 -4 -23z M4012 2650 c0 -19 2 -27 5 -17 2 9 2 25 0 35 -3 9 -5 1
-5 -18z M4814 2550 c0 -58 1 -81 3 -52 2 28 2 76 0 105 -2 28 -3 5 -3 -53z
M4022 2575 c0 -16 2 -22 5 -12 2 9 2 23 0 30 -3 6 -5 -1 -5 -18z M3632 2570
c0 -14 2 -19 5 -12 2 6 2 18 0 25 -3 6 -5 1 -5 -13z M4463 2505 c0 -33 2 -45
4 -27 2 18 2 45 0 60 -2 15 -4 0 -4 -33z M4032 2510 c0 -19 2 -27 5 -17 2 9 2
25 0 35 -3 9 -5 1 -5 -18z M3642 2475 c0 -16 2 -22 5 -12 2 9 2 23 0 30 -3 6
-5 -1 -5 -18z M4042 2425 c0 -16 2 -22 5 -12 2 9 2 23 0 30 -3 6 -5 -1 -5 -18z
M4802 2395 c0 -16 2 -22 5 -12 2 9 2 23 0 30 -3 6 -5 -1 -5 -18z M3652 2385
c0 -16 2 -22 5 -12 2 9 2 23 0 30 -3 6 -5 -1 -5 -18z M4473 2330 c0 -36 2 -50
4 -32 2 17 2 47 0 65 -2 17 -4 3 -4 -33z M4052 2350 c0 -19 2 -27 5 -17 2 9 2
25 0 35 -3 9 -5 1 -5 -18z M4792 2325 c0 -16 2 -22 5 -12 2 9 2 23 0 30 -3 6
-5 -1 -5 -18z M3662 2295 c0 -16 2 -22 5 -12 2 9 2 23 0 30 -3 6 -5 -1 -5 -18z
M4064 2190 c0 -58 1 -81 3 -52 2 28 2 76 0 105 -2 28 -3 5 -3 -53z M4782 2270
c0 -14 2 -19 5 -12 2 6 2 18 0 25 -3 6 -5 1 -5 -13z M3672 2205 c0 -16 2 -22
5 -12 2 9 2 23 0 30 -3 6 -5 -1 -5 -18z M4771 2214 c0 -11 3 -14 6 -6 3 7 2
16 -1 19 -3 4 -6 -2 -5 -13z M4483 2165 c0 -33 2 -45 4 -27 2 18 2 45 0 60 -2
15 -4 0 -4 -33z M4761 2164 c0 -11 3 -14 6 -6 3 7 2 16 -1 19 -3 4 -6 -2 -5
-13z M3682 2120 c0 -14 2 -19 5 -12 2 6 2 18 0 25 -3 6 -5 1 -5 -13z M4751
2114 c0 -11 3 -14 6 -6 3 7 2 16 -1 19 -3 4 -6 -2 -5 -13z M3692 2035 c0 -16
2 -22 5 -12 2 9 2 23 0 30 -3 6 -5 -1 -5 -18z M4052 2040 c0 -14 2 -19 5 -12
2 6 2 18 0 25 -3 6 -5 1 -5 -13z M4493 1995 c0 -27 2 -38 4 -22 2 15 2 37 0
50 -2 12 -4 0 -4 -28z M4731 2024 c0 -11 3 -14 6 -6 3 7 2 16 -1 19 -3 4 -6
-2 -5 -13z M4042 1980 c0 -14 2 -19 5 -12 2 6 2 18 0 25 -3 6 -5 1 -5 -13z
M4721 1974 c0 -11 3 -14 6 -6 3 7 2 16 -1 19 -3 4 -6 -2 -5 -13z M3701 1954
c0 -11 3 -14 6 -6 3 7 2 16 -1 19 -3 4 -6 -2 -5 -13z M4711 1934 c0 -11 3 -14
6 -6 3 7 2 16 -1 19 -3 4 -6 -2 -5 -13z M4032 1915 c0 -16 2 -22 5 -12 2 9 2
23 0 30 -3 6 -5 -1 -5 -18z M3712 1870 c0 -14 2 -19 5 -12 2 6 2 18 0 25 -3 6
-5 1 -5 -13z M4022 1860 c0 -14 2 -19 5 -12 2 6 2 18 0 25 -3 6 -5 1 -5 -13z
M4503 1815 c0 -27 2 -38 4 -22 2 15 2 37 0 50 -2 12 -4 0 -4 -28z M4691 1844
c0 -11 3 -14 6 -6 3 7 2 16 -1 19 -3 4 -6 -2 -5 -13z M4012 1800 c0 -14 2 -19
5 -12 2 6 2 18 0 25 -3 6 -5 1 -5 -13z M3721 1794 c0 -11 3 -14 6 -6 3 7 2 16
-1 19 -3 4 -6 -2 -5 -13z M4002 1740 c0 -14 2 -19 5 -12 2 6 2 18 0 25 -3 6
-5 1 -5 -13z M4671 1744 c0 -11 3 -14 6 -6 3 7 2 16 -1 19 -3 4 -6 -2 -5 -13z
M3732 1720 c0 -14 2 -19 5 -12 2 6 2 18 0 25 -3 6 -5 1 -5 -13z M3992 1690 c0
-14 2 -19 5 -12 2 6 2 18 0 25 -3 6 -5 1 -5 -13z M4661 1694 c0 -11 3 -14 6
-6 3 7 2 16 -1 19 -3 4 -6 -2 -5 -13z M4513 1655 c0 -27 2 -38 4 -22 2 15 2
37 0 50 -2 12 -4 0 -4 -28z M3742 1635 c0 -16 2 -22 5 -12 2 9 2 23 0 30 -3 6
-5 -1 -5 -18z M4651 1644 c0 -11 3 -14 6 -6 3 7 2 16 -1 19 -3 4 -6 -2 -5 -13z
M3982 1630 c0 -14 2 -19 5 -12 2 6 2 18 0 25 -3 6 -5 1 -5 -13z M3972 1575 c0
-16 2 -22 5 -12 2 9 2 23 0 30 -3 6 -5 -1 -5 -18z M3752 1560 c0 -19 2 -27 5
-17 2 9 2 25 0 35 -3 9 -5 1 -5 -18z M4631 1534 c0 -11 3 -14 6 -6 3 7 2 16
-1 19 -3 4 -6 -2 -5 -13z M3962 1515 c0 -16 2 -22 5 -12 2 9 2 23 0 30 -3 6
-5 -1 -5 -18z M4522 1510 c0 -19 2 -27 5 -17 2 9 2 25 0 35 -3 9 -5 1 -5 -18z
M3762 1485 c0 -16 2 -22 5 -12 2 9 2 23 0 30 -3 6 -5 -1 -5 -18z M4621 1484
c0 -11 3 -14 6 -6 3 7 2 16 -1 19 -3 4 -6 -2 -5 -13z M3951 1454 c0 -11 3 -14
6 -6 3 7 2 16 -1 19 -3 4 -6 -2 -5 -13z M3771 1434 c0 -11 3 -14 6 -6 3 7 2
16 -1 19 -3 4 -6 -2 -5 -13z M3942 1395 c0 -16 2 -22 5 -12 2 9 2 23 0 30 -3
6 -5 -1 -5 -18z M4580 1410 c-23 -7 -23 -8 -3 -9 12 -1 25 4 28 9 3 6 5 10 3
9 -2 -1 -14 -5 -28 -9z M3782 1360 c0 -14 2 -19 5 -12 2 6 2 18 0 25 -3 6 -5
1 -5 -13z M3932 1340 c0 -14 2 -19 5 -12 2 6 2 18 0 25 -3 6 -5 1 -5 -13z
M3791 1294 c0 -11 3 -14 6 -6 3 7 2 16 -1 19 -3 4 -6 -2 -5 -13z M3921 1294
c0 -11 3 -14 6 -6 3 7 2 16 -1 19 -3 4 -6 -2 -5 -13z M3911 1254 c0 -11 3 -14
6 -6 3 7 2 16 -1 19 -3 4 -6 -2 -5 -13z M3801 1234 c0 -11 3 -14 6 -6 3 7 2
16 -1 19 -3 4 -6 -2 -5 -13z M3860 1164 c-17 -9 -20 -14 -9 -14 9 0 22 7 29
15 15 18 13 18 -20 -1z"/>
</g>
<g transform="translate(0.000000,1410.000000) scale(0.100000,-0.100000)">
<path fill="#3f6f6e" fill-rule="evenodd" d="M5076 13271 c-3 -4 -25 -107 -50 -227 -25 -120 -65 -304 -89 -409
-60 -251 -65 -282 -77 -402 -23 -242 39 -430 190 -583 148 -150 462 -330 999
-572 929 -418 1283 -600 1654 -844 277 -184 511 -386 661 -573 304 -380 448
-785 434 -1222 -4 -116 -6 -130 -42 -214 -176 -419 -476 -845 -891 -1261 -222
-223 -548 -510 -905 -795 -428 -342 -679 -522 -1632 -1164 -267 -180 -649
-444 -773 -533 -49 -36 -106 -77 -127 -91 -35 -25 -37 -29 -43 -100 -10 -101
8 -536 55 -1311 22 -360 46 -779 55 -930 34 -603 37 -630 80 -630 13 0 27 4
30 10 3 5 26 110 50 232 24 123 62 306 84 408 90 418 92 535 17 940 -54 294
-86 490 -86 527 1 25 23 43 237 182 879 575 1988 1397 2458 1822 795 719 1254
1433 1459 2269 61 248 185 959 211 1202 26 251 17 548 -21 736 -114 555 -439
1000 -1006 1375 -348 231 -723 420 -1678 847 -392 175 -674 314 -790 390 -130
85 -252 211 -307 315 -51 100 -88 244 -108 430 -9 77 -18 150 -20 163 -5 22
-19 29 -29 13z M5843 10513 c26 -2 67 -2 90 0 23 2 2 3 -48 3 -49 0 -68 -1
-42 -3z M5723 10503 c9 -2 23 -2 30 0 6 3 -1 5 -18 5 -16 0 -22 -2 -12 -5z
M6048 10503 c12 -2 30 -2 40 0 9 3 -1 5 -23 4 -22 0 -30 -2 -17 -4z M5668
10493 c7 -3 16 -2 19 1 4 3 -2 6 -13 5 -11 0 -14 -3 -6 -6z M6143 10493 c9 -2
23 -2 30 0 6 3 -1 5 -18 5 -16 0 -22 -2 -12 -5z M5628 10483 c7 -3 16 -2 19 1
4 3 -2 6 -13 5 -11 0 -14 -3 -6 -6z M6208 10483 c6 -2 18 -2 25 0 6 3 1 5 -13
5 -14 0 -19 -2 -12 -5z M5580 10470 c-8 -5 -10 -10 -5 -10 6 0 17 5 25 10 8 5
11 10 5 10 -5 0 -17 -5 -25 -10z M6268 10473 c7 -3 16 -2 19 1 4 3 -2 6 -13 5
-11 0 -14 -3 -6 -6z M6318 10463 c7 -3 16 -2 19 1 4 3 -2 6 -13 5 -11 0 -14
-3 -6 -6z M6358 10453 c7 -3 16 -2 19 1 4 3 -2 6 -13 5 -11 0 -14 -3 -6 -6z
M5514 10434 c-18 -14 -18 -15 4 -4 12 6 22 13 22 15 0 8 -5 6 -26 -11z M6438
10433 c7 -3 16 -2 19 1 4 3 -2 6 -13 5 -11 0 -14 -3 -6 -6z M5445 10378 l-40
-43 43 40 c23 21 42 40 42 42 0 8 -9 0 -45 -39z M6570 10390 c8 -5 20 -10 25
-10 6 0 3 5 -5 10 -8 5 -19 10 -25 10 -5 0 -3 -5 5 -10z M6740 10306 c0 -2 8
-10 18 -17 15 -13 16 -12 3 4 -13 16 -21 21 -21 13z M6815 10240 c21 -22 41
-40 44 -40 3 0 -13 18 -34 40 -21 22 -41 40 -44 40 -3 0 13 -18 34 -40z M6860
10186 c0 -2 8 -10 18 -17 15 -13 16 -12 3 4 -13 16 -21 21 -21 13z M5301
10044 c0 -11 3 -14 6 -6 3 7 2 16 -1 19 -3 4 -6 -2 -5 -13z M5291 9994 c0 -11
3 -14 6 -6 3 7 2 16 -1 19 -3 4 -6 -2 -5 -13z M6971 9964 c0 -11 3 -14 6 -6 3
7 2 16 -1 19 -3 4 -6 -2 -5 -13z M5281 9954 c0 -11 3 -14 6 -6 3 7 2 16 -1 19
-3 4 -6 -2 -5 -13z M5271 9904 c0 -11 3 -14 6 -6 3 7 2 16 -1 19 -3 4 -6 -2
-5 -13z M6992 9890 c0 -14 2 -19 5 -12 2 6 2 18 0 25 -3 6 -5 1 -5 -13z M5262
9860 c0 -14 2 -19 5 -12 2 6 2 18 0 25 -3 6 -5 1 -5 -13z M7002 9825 c0 -16 2
-22 5 -12 2 9 2 23 0 30 -3 6 -5 -1 -5 -18z M5252 9810 c0 -14 2 -19 5 -12 2
6 2 18 0 25 -3 6 -5 1 -5 -13z M5242 9760 c0 -14 2 -19 5 -12 2 6 2 18 0 25
-3 6 -5 1 -5 -13z M7013 9680 c0 -41 2 -58 4 -37 2 20 2 54 0 75 -2 20 -4 3
-4 -38z M5231 9714 c0 -11 3 -14 6 -6 3 7 2 16 -1 19 -3 4 -6 -2 -5 -13z
M5222 9670 c0 -14 2 -19 5 -12 2 6 2 18 0 25 -3 6 -5 1 -5 -13z M5212 9620 c0
-14 2 -19 5 -12 2 6 2 18 0 25 -3 6 -5 1 -5 -13z M5201 9564 c0 -11 3 -14 6
-6 3 7 2 16 -1 19 -3 4 -6 -2 -5 -13z M5718 9573 c17 -2 47 -2 65 0 17 2 3 4
-33 4 -36 0 -50 -2 -32 -4z M5628 9563 c7 -3 16 -2 19 1 4 3 -2 6 -13 5 -11 0
-14 -3 -6 -6z M5873 9563 c9 -2 25 -2 35 0 9 3 1 5 -18 5 -19 0 -27 -2 -17 -5z
M5958 9553 c6 -2 18 -2 25 0 6 3 1 5 -13 5 -14 0 -19 -2 -12 -5z M7002 9530
c0 -19 2 -27 5 -17 2 9 2 25 0 35 -3 9 -5 1 -5 -18z M6018 9543 c7 -3 16 -2
19 1 4 3 -2 6 -13 5 -11 0 -14 -3 -6 -6z M5192 9510 c0 -14 2 -19 5 -12 2 6 2
18 0 25 -3 6 -5 1 -5 -13z M6118 9523 c7 -3 16 -2 19 1 4 3 -2 6 -13 5 -11 0
-14 -3 -6 -6z M6158 9513 c7 -3 16 -2 19 1 4 3 -2 6 -13 5 -11 0 -14 -3 -6 -6z
M5439 9463 l-34 -38 38 34 c20 19 37 36 37 38 0 8 -8 0 -41 -34z M6228 9493
c7 -3 16 -2 19 1 4 3 -2 6 -13 5 -11 0 -14 -3 -6 -6z M5182 9455 c0 -16 2 -22
5 -12 2 9 2 23 0 30 -3 6 -5 -1 -5 -18z M6992 9450 c0 -14 2 -19 5 -12 2 6 2
18 0 25 -3 6 -5 1 -5 -13z M8020 9440 c-6 -11 -8 -20 -6 -20 3 0 10 9 16 20 6
11 8 20 6 20 -3 0 -10 -9 -16 -20z M8112 9430 c0 -19 2 -27 5 -17 2 9 2 25 0
35 -3 9 -5 1 -5 -18z M5389 9403 c-13 -16 -12 -17 4 -4 9 7 17 15 17 17 0 8
-8 3 -21 -13z M5172 9390 c0 -14 2 -19 5 -12 2 6 2 18 0 25 -3 6 -5 1 -5 -13z
M6982 9385 c0 -16 2 -22 5 -12 2 9 2 23 0 30 -3 6 -5 -1 -5 -18z M6470 9396
c0 -3 9 -10 20 -16 11 -6 20 -8 20 -6 0 3 -9 10 -20 16 -11 6 -20 8 -20 6z
M5360 9360 c-6 -11 -8 -20 -6 -20 3 0 10 9 16 20 6 11 8 20 6 20 -3 0 -10 -9
-16 -20z M8102 9355 c0 -16 2 -22 5 -12 2 9 2 23 0 30 -3 6 -5 -1 -5 -18z
M6520 9366 c0 -2 8 -10 18 -17 15 -13 16 -12 3 4 -13 16 -21 21 -21 13z M5162
9325 c0 -16 2 -22 5 -12 2 9 2 23 0 30 -3 6 -5 -1 -5 -18z M7960 9330 c-6 -11
-8 -20 -6 -20 3 0 10 9 16 20 6 11 8 20 6 20 -3 0 -10 -9 -16 -20z M6605 9290
c27 -27 51 -50 54 -50 3 0 -17 23 -44 50 -27 28 -51 50 -54 50 -3 0 17 -22 44
-50z M6972 9320 c0 -14 2 -19 5 -12 2 6 2 18 0 25 -3 6 -5 1 -5 -13z M8092
9300 c0 -14 2 -19 5 -12 2 6 2 18 0 25 -3 6 -5 1 -5 -13z M5152 9255 c0 -16 2
-22 5 -12 2 9 2 23 0 30 -3 6 -5 -1 -5 -18z M6962 9260 c0 -14 2 -19 5 -12 2
6 2 18 0 25 -3 6 -5 1 -5 -13z M7905 9230 c-9 -16 -13 -30 -11 -30 3 0 12 14
21 30 9 17 13 30 11 30 -3 0 -12 -13 -21 -30z M8082 9240 c0 -14 2 -19 5 -12
2 6 2 18 0 25 -3 6 -5 1 -5 -13z M6952 9200 c0 -14 2 -19 5 -12 2 6 2 18 0 25
-3 6 -5 1 -5 -13z M5142 9180 c0 -19 2 -27 5 -17 2 9 2 25 0 35 -3 9 -5 1 -5
-18z M5291 9194 c0 -11 3 -14 6 -6 3 7 2 16 -1 19 -3 4 -6 -2 -5 -13z M8072
9190 c0 -14 2 -19 5 -12 2 6 2 18 0 25 -3 6 -5 1 -5 -13z M6690 9180 c6 -11
13 -20 16 -20 2 0 0 9 -6 20 -6 11 -13 20 -16 20 -2 0 0 -9 6 -20z M5281 9154
c0 -11 3 -14 6 -6 3 7 2 16 -1 19 -3 4 -6 -2 -5 -13z M6941 9154 c0 -11 3 -14
6 -6 3 7 2 16 -1 19 -3 4 -6 -2 -5 -13z M8062 9130 c0 -14 2 -19 5 -12 2 6 2
18 0 25 -3 6 -5 1 -5 -13z M6932 9110 c0 -14 2 -19 5 -12 2 6 2 18 0 25 -3 6
-5 1 -5 -13z M7840 9110 c-6 -11 -8 -20 -6 -20 3 0 10 9 16 20 6 11 8 20 6 20
-3 0 -10 -9 -16 -20z M5132 9100 c0 -14 2 -19 5 -12 2 6 2 18 0 25 -3 6 -5 1
-5 -13z M5272 9100 c0 -14 2 -19 5 -12 2 6 2 18 0 25 -3 6 -5 1 -5 -13z M6723
9080 c0 -25 2 -35 4 -22 2 12 2 32 0 45 -2 12 -4 2 -4 -23z M8051 9074 c0 -11
3 -14 6 -6 3 7 2 16 -1 19 -3 4 -6 -2 -5 -13z M6921 9064 c0 -11 3 -14 6 -6 3
7 2 16 -1 19 -3 4 -6 -2 -5 -13z M5140 9063 c0 -6 8 -17 18 -24 16 -13 16 -13
2 6 -8 11 -16 22 -17 24 -2 2 -3 0 -3 -6z M5256 9053 c-6 -14 -5 -15 5 -6 7 7
10 15 7 18 -3 3 -9 -2 -12 -12z M7800 9040 c-6 -11 -8 -20 -6 -20 3 0 10 9 16
20 6 11 8 20 6 20 -3 0 -10 -9 -16 -20z M6912 9015 c0 -16 2 -22 5 -12 2 9 2
23 0 30 -3 6 -5 -1 -5 -18z M8041 9024 c0 -11 3 -14 6 -6 3 7 2 16 -1 19 -3 4
-6 -2 -5 -13z M6706 9013 c-6 -14 -5 -15 5 -6 7 7 10 15 7 18 -3 3 -9 -2 -12
-12z M6679 8973 c-13 -16 -12 -17 4 -4 9 7 17 15 17 17 0 8 -8 3 -21 -13z
M8031 8974 c0 -11 3 -14 6 -6 3 7 2 16 -1 19 -3 4 -6 -2 -5 -13z M6902 8960
c0 -14 2 -19 5 -12 2 6 2 18 0 25 -3 6 -5 1 -5 -13z M8022 8930 c0 -14 2 -19
5 -12 2 6 2 18 0 25 -3 6 -5 1 -5 -13z M6892 8910 c0 -14 2 -19 5 -12 2 6 2
18 0 25 -3 6 -5 1 -5 -13z M7720 8900 c-6 -11 -8 -20 -6 -20 3 0 10 9 16 20 6
11 8 20 6 20 -3 0 -10 -9 -16 -20z M8012 8880 c0 -14 2 -19 5 -12 2 6 2 18 0
25 -3 6 -5 1 -5 -13z M6574 8868 l-19 -23 23 19 c12 11 22 21 22 23 0 8 -8 2
-26 -19z M6881 8854 c0 -11 3 -14 6 -6 3 7 2 16 -1 19 -3 4 -6 -2 -5 -13z
M8001 8834 c0 -11 3 -14 6 -6 3 7 2 16 -1 19 -3 4 -6 -2 -5 -13z M6871 8804
c0 -11 3 -14 6 -6 3 7 2 16 -1 19 -3 4 -6 -2 -5 -13z M6464 8794 c-18 -14 -18
-15 4 -4 12 6 22 13 22 15 0 8 -5 6 -26 -11z M7992 8790 c0 -14 2 -19 5 -12 2
6 2 18 0 25 -3 6 -5 1 -5 -13z M6861 8754 c0 -11 3 -14 6 -6 3 7 2 16 -1 19
-3 4 -6 -2 -5 -13z M7981 8744 c0 -11 3 -14 6 -6 3 7 2 16 -1 19 -3 4 -6 -2
-5 -13z M6852 8710 c0 -14 2 -19 5 -12 2 6 2 18 0 25 -3 6 -5 1 -5 -13z M7971
8704 c0 -11 3 -14 6 -6 3 7 2 16 -1 19 -3 4 -6 -2 -5 -13z M6841 8664 c0 -11
3 -14 6 -6 3 7 2 16 -1 19 -3 4 -6 -2 -5 -13z M7961 8664 c0 -11 3 -14 6 -6 3
7 2 16 -1 19 -3 4 -6 -2 -5 -13z M6831 8624 c0 -11 3 -14 6 -6 3 7 2 16 -1 19
-3 4 -6 -2 -5 -13z M6038 8623 c7 -3 16 -2 19 1 4 3 -2 6 -13 5 -11 0 -14 -3
-6 -6z M5998 8613 c7 -3 16 -2 19 1 4 3 -2 6 -13 5 -11 0 -14 -3 -6 -6z M5958
8603 c7 -3 16 -2 19 1 4 3 -2 6 -13 5 -11 0 -14 -3 -6 -6z M7941 8594 c0 -11
3 -14 6 -6 3 7 2 16 -1 19 -3 4 -6 -2 -5 -13z M5918 8593 c7 -3 16 -2 19 1 4
3 -2 6 -13 5 -11 0 -14 -3 -6 -6z M6821 8584 c0 -11 3 -14 6 -6 3 7 2 16 -1
19 -3 4 -6 -2 -5 -13z M5868 8583 c7 -3 16 -2 19 1 4 3 -2 6 -13 5 -11 0 -14
-3 -6 -6z M5828 8573 c7 -3 16 -2 19 1 4 3 -2 6 -13 5 -11 0 -14 -3 -6 -6z
M5778 8563 c7 -3 16 -2 19 1 4 3 -2 6 -13 5 -11 0 -14 -3 -6 -6z M5728 8553
c7 -3 16 -2 19 1 4 3 -2 6 -13 5 -11 0 -14 -3 -6 -6z M6811 8544 c0 -11 3 -14
6 -6 3 7 2 16 -1 19 -3 4 -6 -2 -5 -13z M5678 8543 c7 -3 16 -2 19 1 4 3 -2 6
-13 5 -11 0 -14 -3 -6 -6z M5628 8533 c7 -3 16 -2 19 1 4 3 -2 6 -13 5 -11 0
-14 -3 -6 -6z M7916 8525 c-9 -26 -7 -32 5 -12 6 10 9 21 6 23 -2 3 -7 -2 -11
-11z M5578 8523 c7 -3 16 -2 19 1 4 3 -2 6 -13 5 -11 0 -14 -3 -6 -6z M5538
8513 c7 -3 16 -2 19 1 4 3 -2 6 -13 5 -11 0 -14 -3 -6 -6z M6801 8504 c0 -11
3 -14 6 -6 3 7 2 16 -1 19 -3 4 -6 -2 -5 -13z M5488 8503 c7 -3 16 -2 19 1 4
3 -2 6 -13 5 -11 0 -14 -3 -6 -6z M5448 8493 c7 -3 16 -2 19 1 4 3 -2 6 -13 5
-11 0 -14 -3 -6 -6z M5408 8483 c7 -3 16 -2 19 1 4 3 -2 6 -13 5 -11 0 -14 -3
-6 -6z M6791 8473 c-1 -6 -4 -20 -7 -30 -5 -17 -5 -17 6 0 6 10 9 23 6 30 -3
9 -5 9 -5 0z M6766 8395 c-9 -26 -7 -32 5 -12 6 10 9 21 6 23 -2 3 -7 -2 -11
-11z M5130 8390 c-8 -5 -10 -10 -5 -10 6 0 17 5 25 10 8 5 11 10 5 10 -5 0
-17 -5 -25 -10z M7369 8363 c-13 -16 -12 -17 4 -4 9 7 17 15 17 17 0 8 -8 3
-21 -13z M5005 8330 c-3 -6 1 -7 9 -4 18 7 21 14 7 14 -6 0 -13 -4 -16 -10z
M7339 8323 c-13 -16 -12 -17 4 -4 9 7 17 15 17 17 0 8 -8 3 -21 -13z M6736
8315 c-9 -26 -7 -32 5 -12 6 10 9 21 6 23 -2 3 -7 -2 -11 -11z M4965 8310 c-3
-6 1 -7 9 -4 18 7 21 14 7 14 -6 0 -13 -4 -16 -10z M7800 8290 c-6 -11 -8 -20
-6 -20 3 0 10 9 16 20 6 11 8 20 6 20 -3 0 -10 -9 -16 -20z M7309 8283 c-13
-16 -12 -17 4 -4 9 7 17 15 17 17 0 8 -8 3 -21 -13z M7279 8243 c-13 -16 -12
-17 4 -4 9 7 17 15 17 17 0 8 -8 3 -21 -13z M7776 8243 c-6 -14 -5 -15 5 -6 7
7 10 15 7 18 -3 3 -9 -2 -12 -12z M7239 8193 c-13 -16 -12 -17 4 -4 9 7 17 15
17 17 0 8 -8 3 -21 -13z M4709 8143 c-13 -16 -12 -17 4 -4 9 7 17 15 17 17 0
8 -8 3 -21 -13z M7194 8138 l-19 -23 23 19 c12 11 22 21 22 23 0 8 -8 2 -26
-19z M7715 8130 c-9 -16 -13 -30 -11 -30 3 0 12 14 21 30 9 17 13 30 11 30 -3
0 -12 -13 -21 -30z M4664 8108 l-19 -23 23 19 c21 18 27 26 19 26 -2 0 -12
-10 -23 -22z M7144 8078 l-29 -33 33 29 c30 28 37 36 29 36 -2 0 -16 -15 -33
-32z M4540 7993 l-85 -88 88 85 c48 46 87 86 87 87 0 8 -11 -3 -90 -84z M6569
8033 l-24 -28 28 24 c15 14 27 26 27 28 0 8 -8 1 -31 -24z M7060 7985 c-24
-25 -42 -45 -39 -45 3 0 25 20 49 45 24 25 42 45 39 45 -3 0 -25 -20 -49 -45z
M6459 7923 l-24 -28 28 24 c15 14 27 26 27 28 0 8 -8 1 -31 -24z M7600 7920
c-6 -11 -8 -20 -6 -20 3 0 10 9 16 20 6 11 8 20 6 20 -3 0 -10 -9 -16 -20z
M6930 7843 l-55 -58 58 55 c31 30 57 56 57 57 0 8 -10 -1 -60 -54z M4424 7868
l-19 -23 23 19 c12 11 22 21 22 23 0 8 -8 2 -26 -19z M6399 7873 c-13 -16 -12
-17 4 -4 9 7 17 15 17 17 0 8 -8 3 -21 -13z M4379 7813 c-13 -16 -12 -17 4 -4
9 7 17 15 17 17 0 8 -8 3 -21 -13z M6274 7794 c-18 -14 -18 -15 4 -4 12 6 22
13 22 15 0 8 -5 6 -26 -11z M4349 7773 c-13 -16 -12 -17 4 -4 16 13 21 21 13
21 -2 0 -10 -8 -17 -17z M6210 7765 c-14 -8 -20 -14 -15 -14 6 0 21 6 35 14
14 8 21 14 15 14 -5 0 -21 -6 -35 -14z M6130 7730 c-8 -5 -10 -10 -5 -10 6 0
17 5 25 10 8 5 11 10 5 10 -5 0 -17 -5 -25 -10z M6750 7675 c-24 -25 -42 -45
-39 -45 3 0 25 20 49 45 24 25 42 45 39 45 -3 0 -25 -20 -49 -45z M5958 7673
c7 -3 16 -2 19 1 4 3 -2 6 -13 5 -11 0 -14 -3 -6 -6z M5918 7663 c7 -3 16 -2
19 1 4 3 -2 6 -13 5 -11 0 -14 -3 -6 -6z M5878 7653 c7 -3 16 -2 19 1 4 3 -2
6 -13 5 -11 0 -14 -3 -6 -6z M5838 7643 c7 -3 16 -2 19 1 4 3 -2 6 -13 5 -11
0 -14 -3 -6 -6z M5798 7633 c7 -3 16 -2 19 1 4 3 -2 6 -13 5 -11 0 -14 -3 -6
-6z M4240 7610 c-6 -11 -8 -20 -6 -20 3 0 10 9 16 20 6 11 8 20 6 20 -3 0 -10
-9 -16 -20z M5748 7623 c6 -2 18 -2 25 0 6 3 1 5 -13 5 -14 0 -19 -2 -12 -5z
M5708 7613 c7 -3 16 -2 19 1 4 3 -2 6 -13 5 -11 0 -14 -3 -6 -6z M5658 7603
c7 -3 16 -2 19 1 4 3 -2 6 -13 5 -11 0 -14 -3 -6 -6z M6649 7583 l-24 -28 28
24 c15 14 27 26 27 28 0 8 -8 1 -31 -24z M5618 7593 c7 -3 16 -2 19 1 4 3 -2
6 -13 5 -11 0 -14 -3 -6 -6z M5568 7583 c7 -3 16 -2 19 1 4 3 -2 6 -13 5 -11
0 -14 -3 -6 -6z M4210 7560 c-6 -11 -8 -20 -6 -20 3 0 10 9 16 20 6 11 8 20 6
20 -3 0 -10 -9 -16 -20z M5528 7573 c7 -3 16 -2 19 1 4 3 -2 6 -13 5 -11 0
-14 -3 -6 -6z M5488 7563 c7 -3 16 -2 19 1 4 3 -2 6 -13 5 -11 0 -14 -3 -6 -6z
M5438 7553 c7 -3 16 -2 19 1 4 3 -2 6 -13 5 -11 0 -14 -3 -6 -6z M5398 7543
c7 -3 16 -2 19 1 4 3 -2 6 -13 5 -11 0 -14 -3 -6 -6z M6584 7528 l-19 -23 23
19 c21 18 27 26 19 26 -2 0 -12 -10 -23 -22z M5358 7533 c7 -3 16 -2 19 1 4 3
-2 6 -13 5 -11 0 -14 -3 -6 -6z M5318 7523 c7 -3 16 -2 19 1 4 3 -2 6 -13 5
-11 0 -14 -3 -6 -6z M4165 7480 c-9 -16 -13 -30 -11 -30 3 0 12 14 21 30 9 17
13 30 11 30 -3 0 -12 -13 -21 -30z M6539 7493 c-13 -16 -12 -17 4 -4 9 7 17
15 17 17 0 8 -8 3 -21 -13z M6489 7453 c-13 -16 -12 -17 4 -4 9 7 17 15 17 17
0 8 -8 3 -21 -13z M5078 7453 c7 -3 16 -2 19 1 4 3 -2 6 -13 5 -11 0 -14 -3
-6 -6z M5000 7430 c-18 -12 -2 -12 25 0 13 6 15 9 5 9 -8 0 -22 -4 -30 -9z
M6449 7423 c-13 -16 -12 -17 4 -4 9 7 17 15 17 17 0 8 -8 3 -21 -13z M4900
7390 c-8 -5 -10 -10 -5 -10 6 0 17 5 25 10 8 5 11 10 5 10 -5 0 -17 -5 -25
-10z M4086 7325 c-9 -26 -7 -32 5 -12 6 10 9 21 6 23 -2 3 -7 -2 -11 -11z
M4775 7330 c-3 -6 1 -7 9 -4 18 7 21 14 7 14 -6 0 -13 -4 -16 -10z M4714 7294
c-18 -14 -18 -15 4 -4 12 6 22 13 22 15 0 8 -5 6 -26 -11z M7189 7263 c-13
-16 -12 -17 4 -4 9 7 17 15 17 17 0 8 -8 3 -21 -13z M4046 7235 c-9 -26 -7
-32 5 -12 6 10 9 21 6 23 -2 3 -7 -2 -11 -11z M7159 7223 c-13 -16 -12 -17 4
-4 9 7 17 15 17 17 0 8 -8 3 -21 -13z M6144 7214 c-18 -14 -18 -15 4 -4 12 6
22 13 22 15 0 8 -5 6 -26 -11z M4579 7203 c-13 -16 -12 -17 4 -4 9 7 17 15 17
17 0 8 -8 3 -21 -13z M4026 7185 c-9 -26 -7 -32 5 -12 6 10 9 21 6 23 -2 3 -7
-2 -11 -11z M7129 7183 c-13 -16 -12 -17 4 -4 9 7 17 15 17 17 0 8 -8 3 -21
-13z M4529 7163 l-24 -28 28 24 c25 23 32 31 24 31 -2 0 -14 -12 -28 -27z
M7094 7138 l-19 -23 23 19 c21 18 27 26 19 26 -2 0 -12 -10 -23 -22z M4420
7063 l-55 -58 58 55 c31 30 57 56 57 57 0 8 -10 -1 -60 -54z M7049 7083 l-24
-28 28 24 c15 14 27 26 27 28 0 8 -8 1 -31 -24z M5828 7034 c-38 -20 -36 -28
2 -9 17 9 30 18 30 20 0 7 -1 6 -32 -11z M6999 7023 l-24 -28 28 24 c15 14 27
26 27 28 0 8 -8 1 -31 -24z M4329 6963 l-24 -28 28 24 c25 23 32 31 24 31 -2
0 -14 -12 -28 -27z M6934 6948 l-29 -33 33 29 c30 28 37 36 29 36 -2 0 -16
-15 -33 -32z M5684 6954 c-18 -14 -18 -15 4 -4 12 6 22 13 22 15 0 8 -5 6 -26
-11z M5635 6930 c-3 -6 1 -7 9 -4 18 7 21 14 7 14 -6 0 -13 -4 -16 -10z M4284
6908 l-19 -23 23 19 c12 11 22 21 22 23 0 8 -8 2 -26 -19z M6775 6778 l-110
-113 113 110 c61 60 112 111 112 112 0 8 -13 -5 -115 -109z M4249 6863 c-13
-16 -12 -17 4 -4 9 7 17 15 17 17 0 8 -8 3 -21 -13z M4164 6738 c-4 -7 -14
-24 -22 -38 -14 -24 -13 -24 3 -5 20 24 37 55 31 55 -3 0 -8 -6 -12 -12z
M6604 6618 l-29 -33 33 29 c30 28 37 36 29 36 -2 0 -16 -15 -33 -32z M4074
6579 c-14 -28 -24 -53 -22 -55 2 -2 16 21 31 51 15 30 25 55 22 55 -3 0 -16
-23 -31 -51z M3851 6584 c0 -11 3 -14 6 -6 3 7 2 16 -1 19 -3 4 -6 -2 -5 -13z
M6534 6558 l-19 -23 23 19 c21 18 27 26 19 26 -2 0 -12 -10 -23 -22z M4884
6544 c-18 -14 -18 -15 4 -4 12 6 22 13 22 15 0 8 -5 6 -26 -11z M3841 6534 c0
-11 3 -14 6 -6 3 7 2 16 -1 19 -3 4 -6 -2 -5 -13z M6474 6508 l-19 -23 23 19
c21 18 27 26 19 26 -2 0 -12 -10 -23 -22z M3831 6494 c0 -11 3 -14 6 -6 3 7 2
16 -1 19 -3 4 -6 -2 -5 -13z M4022 6465 c-17 -37 -14 -45 4 -12 9 16 14 31 11
33 -2 2 -9 -7 -15 -21z M3821 6444 c0 -11 3 -14 6 -6 3 7 2 16 -1 19 -3 4 -6
-2 -5 -13z M3811 6394 c0 -11 3 -14 6 -6 3 7 2 16 -1 19 -3 4 -6 -2 -5 -13z
M3986 6385 c-9 -26 -7 -32 5 -12 6 10 9 21 6 23 -2 3 -7 -2 -11 -11z M6309
6383 c-13 -16 -12 -17 4 -4 9 7 17 15 17 17 0 8 -8 3 -21 -13z M3802 6340 c0
-14 2 -19 5 -12 2 6 2 18 0 25 -3 6 -5 1 -5 -13z M3791 6284 c0 -11 3 -14 6
-6 3 7 2 16 -1 19 -3 4 -6 -2 -5 -13z M3781 6224 c0 -11 3 -14 6 -6 3 7 2 16
-1 19 -3 4 -6 -2 -5 -13z M3772 6170 c0 -14 2 -19 5 -12 2 6 2 18 0 25 -3 6
-5 1 -5 -13z M3762 6110 c0 -14 2 -19 5 -12 2 6 2 18 0 25 -3 6 -5 1 -5 -13z
M3751 6044 c0 -11 3 -14 6 -6 3 7 2 16 -1 19 -3 4 -6 -2 -5 -13z M4069 6043
c-13 -16 -12 -17 4 -4 16 13 21 21 13 21 -2 0 -10 -8 -17 -17z M3871 6004 c0
-11 3 -14 6 -6 3 7 2 16 -1 19 -3 4 -6 -2 -5 -13z M3741 5984 c0 -11 3 -14 6
-6 3 7 2 16 -1 19 -3 4 -6 -2 -5 -13z M3862 5950 c0 -14 2 -19 5 -12 2 6 2 18
0 25 -3 6 -5 1 -5 -13z M3949 5953 c-13 -16 -12 -17 4 -4 9 7 17 15 17 17 0 8
-8 3 -21 -13z M3732 5920 c0 -14 2 -19 5 -12 2 6 2 18 0 25 -3 6 -5 1 -5 -13z
M3899 5913 c-13 -16 -12 -17 4 -4 16 13 21 21 13 21 -2 0 -10 -8 -17 -17z
M5498 5914 c-38 -20 -36 -28 2 -9 17 9 30 18 30 20 0 7 -1 6 -32 -11z M3850
5890 c0 -5 5 -10 11 -10 5 0 7 5 4 10 -3 6 -8 10 -11 10 -2 0 -4 -4 -4 -10z
M3721 5854 c0 -11 3 -14 6 -6 3 7 2 16 -1 19 -3 4 -6 -2 -5 -13z M3712 5790
c0 -14 2 -19 5 -12 2 6 2 18 0 25 -3 6 -5 1 -5 -13z M5218 5769 c-21 -11 -38
-22 -38 -24 0 -3 18 4 40 15 22 11 40 23 40 25 0 7 0 7 -42 -16z M3515 5548
l-40 -43 43 40 c23 21 42 40 42 42 0 8 -9 0 -45 -39z M4848 5574 c-38 -20 -36
-28 2 -9 17 9 30 18 30 20 0 7 -1 6 -32 -11z M3434 5458 l-19 -23 23 19 c21
18 27 26 19 26 -2 0 -12 -10 -23 -22z M4634 5454 c-18 -14 -18 -15 4 -4 12 6
22 13 22 15 0 8 -5 6 -26 -11z M3389 5403 c-13 -16 -12 -17 4 -4 9 7 17 15 17
17 0 8 -8 3 -21 -13z M4494 5374 c-18 -14 -18 -15 4 -4 12 6 22 13 22 15 0 8
-5 6 -26 -11z M3349 5353 c-13 -16 -12 -17 4 -4 16 13 21 21 13 21 -2 0 -10
-8 -17 -17z M3319 5313 c-13 -16 -12 -17 4 -4 16 13 21 21 13 21 -2 0 -10 -8
-17 -17z M4374 5304 c-18 -14 -18 -15 4 -4 12 6 22 13 22 15 0 8 -5 6 -26 -11z
M4324 5274 c-18 -14 -18 -15 4 -4 12 6 22 13 22 15 0 8 -5 6 -26 -11z M3170
5090 c-6 -11 -8 -20 -6 -20 3 0 10 9 16 20 6 11 8 20 6 20 -3 0 -10 -9 -16
-20z M4007 5075 c-20 -14 -37 -28 -37 -31 0 -2 18 8 40 22 35 23 47 34 37 34
-1 0 -19 -11 -40 -25z M3140 5040 c-6 -11 -8 -20 -6 -20 3 0 10 9 16 20 6 11
8 20 6 20 -3 0 -10 -9 -16 -20z M3939 5023 c-13 -16 -12 -17 4 -4 9 7 17 15
17 17 0 8 -8 3 -21 -13z M3100 4970 c-6 -11 -8 -20 -6 -20 3 0 10 9 16 20 6
11 8 20 6 20 -3 0 -10 -9 -16 -20z M3869 4973 c-13 -16 -12 -17 4 -4 16 13 21
21 13 21 -2 0 -10 -8 -17 -17z M3834 4947 c-3 -8 -4 -49 -2 -93 l3 -79 5 93
c5 92 4 104 -6 79z M2992 4755 c-17 -37 -14 -45 4 -12 9 16 14 31 11 33 -2 2
-9 -7 -15 -21z M3505 4668 l-60 -63 63 60 c34 33 62 61 62 62 0 8 -10 -1 -65
-59z M3563 4590 c0 -36 2 -50 4 -32 2 17 2 47 0 65 -2 17 -4 3 -4 -33z M3394
4548 l-29 -33 33 29 c17 17 32 31 32 33 0 8 -8 1 -36 -29z M3843 4490 c0 -36
2 -50 4 -32 2 17 2 47 0 65 -2 17 -4 3 -4 -33z M3334 4478 l-19 -23 23 19 c12
11 22 21 22 23 0 8 -8 2 -26 -19z M3289 4423 c-13 -16 -12 -17 4 -4 16 13 21
21 13 21 -2 0 -10 -8 -17 -17z M3259 4383 c-13 -16 -12 -17 4 -4 16 13 21 21
13 21 -2 0 -10 -8 -17 -17z M3554 4085 c0 -170 2 -242 3 -158 2 83 2 223 0
310 -1 87 -3 19 -3 -152z M3229 4343 c-13 -16 -12 -17 4 -4 16 13 21 21 13 21
-2 0 -10 -8 -17 -17z M3853 4275 c0 -33 2 -45 4 -27 2 18 2 45 0 60 -2 15 -4
0 -4 -33z M3199 4303 c-13 -16 -12 -17 4 -4 16 13 21 21 13 21 -2 0 -10 -8
-17 -17z M2771 4124 c0 -11 3 -14 6 -6 3 7 2 16 -1 19 -3 4 -6 -2 -5 -13z
M3863 4090 c0 -30 2 -43 4 -27 2 15 2 39 0 55 -2 15 -4 2 -4 -28z M2751 4044
c0 -11 3 -14 6 -6 3 7 2 16 -1 19 -3 4 -6 -2 -5 -13z M2741 4004 c0 -11 3 -14
6 -6 3 7 2 16 -1 19 -3 4 -6 -2 -5 -13z M2731 3964 c0 -11 3 -14 6 -6 3 7 2
16 -1 19 -3 4 -6 -2 -5 -13z M3873 3935 c0 -27 2 -38 4 -22 2 15 2 37 0 50 -2
12 -4 0 -4 -28z M2711 3874 c0 -11 3 -14 6 -6 3 7 2 16 -1 19 -3 4 -6 -2 -5
-13z M2946 3875 c-9 -26 -7 -32 5 -12 6 10 9 21 6 23 -2 3 -7 -2 -11 -11z
M3883 3785 c0 -22 2 -30 4 -17 2 12 2 30 0 40 -3 9 -5 -1 -4 -23z M3892 3665
c0 -16 2 -22 5 -12 2 9 2 23 0 30 -3 6 -5 -1 -5 -18z M3563 3540 c0 -30 2 -43
4 -27 2 15 2 39 0 55 -2 15 -4 2 -4 -28z M3902 3560 c0 -19 2 -27 5 -17 2 9 2
25 0 35 -3 9 -5 1 -5 -18z M2631 3484 c0 -11 3 -14 6 -6 3 7 2 16 -1 19 -3 4
-6 -2 -5 -13z M3912 3455 c0 -16 2 -22 5 -12 2 9 2 23 0 30 -3 6 -5 -1 -5 -18z
M2621 3424 c0 -11 3 -14 6 -6 3 7 2 16 -1 19 -3 4 -6 -2 -5 -13z M2611 3374
c0 -11 3 -14 6 -6 3 7 2 16 -1 19 -3 4 -6 -2 -5 -13z M3922 3355 c0 -16 2 -22
5 -12 2 9 2 23 0 30 -3 6 -5 -1 -5 -18z M3572 3345 c0 -16 2 -22 5 -12 2 9 2
23 0 30 -3 6 -5 -1 -5 -18z M2602 3310 c0 -14 2 -19 5 -12 2 6 2 18 0 25 -3 6
-5 1 -5 -13z M3932 3255 c0 -16 2 -22 5 -12 2 9 2 23 0 30 -3 6 -5 -1 -5 -18z
M2592 3240 c0 -14 2 -19 5 -12 2 6 2 18 0 25 -3 6 -5 1 -5 -13z M2721 3224 c0
-11 3 -14 6 -6 3 7 2 16 -1 19 -3 4 -6 -2 -5 -13z M3582 3180 c0 -19 2 -27 5
-17 2 9 2 25 0 35 -3 9 -5 1 -5 -18z M3942 3165 c0 -16 2 -22 5 -12 2 9 2 23
0 30 -3 6 -5 -1 -5 -18z M2581 3164 c0 -11 3 -14 6 -6 3 7 2 16 -1 19 -3 4 -6
-2 -5 -13z M2701 3134 c0 -11 3 -14 6 -6 3 7 2 16 -1 19 -3 4 -6 -2 -5 -13z
M2572 3080 c0 -14 2 -19 5 -12 2 6 2 18 0 25 -3 6 -5 1 -5 -13z M2691 3084 c0
-11 3 -14 6 -6 3 7 2 16 -1 19 -3 4 -6 -2 -5 -13z M3952 3080 c0 -14 2 -19 5
-12 2 6 2 18 0 25 -3 6 -5 1 -5 -13z M3592 3045 c0 -16 2 -22 5 -12 2 9 2 23
0 30 -3 6 -5 -1 -5 -18z M2681 3034 c0 -11 3 -14 6 -6 3 7 2 16 -1 19 -3 4 -6
-2 -5 -13z M3961 2994 c0 -11 3 -14 6 -6 3 7 2 16 -1 19 -3 4 -6 -2 -5 -13z
M2562 2970 c0 -19 2 -27 5 -17 2 9 2 25 0 35 -3 9 -5 1 -5 -18z M2671 2974 c0
-11 3 -14 6 -6 3 7 2 16 -1 19 -3 4 -6 -2 -5 -13z M3602 2930 c0 -14 2 -19 5
-12 2 6 2 18 0 25 -3 6 -5 1 -5 -13z M2662 2920 c0 -14 2 -19 5 -12 2 6 2 18
0 25 -3 6 -5 1 -5 -13z M3972 2910 c0 -14 2 -19 5 -12 2 6 2 18 0 25 -3 6 -5
1 -5 -13z M2652 2855 c0 -16 2 -22 5 -12 2 9 2 23 0 30 -3 6 -5 -1 -5 -18z
M3982 2840 c0 -14 2 -19 5 -12 2 6 2 18 0 25 -3 6 -5 1 -5 -13z M3612 2815 c0
-16 2 -22 5 -12 2 9 2 23 0 30 -3 6 -5 -1 -5 -18z M2642 2785 c0 -16 2 -22 5
-12 2 9 2 23 0 30 -3 6 -5 -1 -5 -18z M3991 2754 c0 -11 3 -14 6 -6 3 7 2 16
-1 19 -3 4 -6 -2 -5 -13z M2592 2725 c18 -19 48 -14 48 7 0 9 -3 8 -10 -2 -8
-13 -13 -13 -32 -1 -22 12 -22 12 -6 -4z M3621 2714 c0 -11 3 -14 6 -6 3 7 2
16 -1 19 -3 4 -6 -2 -5 -13z M4002 2680 c0 -14 2 -19 5 -12 2 6 2 18 0 25 -3
6 -5 1 -5 -13z M3632 2615 c0 -16 2 -22 5 -12 2 9 2 23 0 30 -3 6 -5 -1 -5
-18z M4012 2600 c0 -14 2 -19 5 -12 2 6 2 18 0 25 -3 6 -5 1 -5 -13z M4022
2530 c0 -14 2 -19 5 -12 2 6 2 18 0 25 -3 6 -5 1 -5 -13z M3642 2520 c0 -14 2
-19 5 -12 2 6 2 18 0 25 -3 6 -5 1 -5 -13z M4032 2460 c0 -14 2 -19 5 -12 2 6
2 18 0 25 -3 6 -5 1 -5 -13z M3651 2424 c0 -11 3 -14 6 -6 3 7 2 16 -1 19 -3
4 -6 -2 -5 -13z M4042 2380 c0 -14 2 -19 5 -12 2 6 2 18 0 25 -3 6 -5 1 -5
-13z M3661 2334 c0 -11 3 -14 6 -6 3 7 2 16 -1 19 -3 4 -6 -2 -5 -13z M4053
2285 c0 -22 2 -30 4 -17 2 12 2 30 0 40 -3 9 -5 -1 -4 -23z M3671 2244 c0 -11
3 -14 6 -6 3 7 2 16 -1 19 -3 4 -6 -2 -5 -13z M3682 2160 c0 -14 2 -19 5 -12
2 6 2 18 0 25 -3 6 -5 1 -5 -13z M4052 2085 c0 -16 2 -22 5 -12 2 9 2 23 0 30
-3 6 -5 -1 -5 -18z M3691 2074 c0 -11 3 -14 6 -6 3 7 2 16 -1 19 -3 4 -6 -2
-5 -13z M4042 2020 c0 -14 2 -19 5 -12 2 6 2 18 0 25 -3 6 -5 1 -5 -13z M3702
1990 c0 -14 2 -19 5 -12 2 6 2 18 0 25 -3 6 -5 1 -5 -13z M4031 1954 c0 -11 3
-14 6 -6 3 7 2 16 -1 19 -3 4 -6 -2 -5 -13z M3711 1904 c0 -11 3 -14 6 -6 3 7
2 16 -1 19 -3 4 -6 -2 -5 -13z M4021 1894 c0 -11 3 -14 6 -6 3 7 2 16 -1 19
-3 4 -6 -2 -5 -13z M3722 1830 c0 -14 2 -19 5 -12 2 6 2 18 0 25 -3 6 -5 1 -5
-13z M4011 1834 c0 -11 3 -14 6 -6 3 7 2 16 -1 19 -3 4 -6 -2 -5 -13z M4001
1774 c0 -11 3 -14 6 -6 3 7 2 16 -1 19 -3 4 -6 -2 -5 -13z M3731 1754 c0 -11
3 -14 6 -6 3 7 2 16 -1 19 -3 4 -6 -2 -5 -13z M3991 1724 c0 -11 3 -14 6 -6 3
7 2 16 -1 19 -3 4 -6 -2 -5 -13z M3742 1680 c0 -14 2 -19 5 -12 2 6 2 18 0 25
-3 6 -5 1 -5 -13z M3981 1664 c0 -11 3 -14 6 -6 3 7 2 16 -1 19 -3 4 -6 -2 -5
-13z M3751 1604 c0 -11 3 -14 6 -6 3 7 2 16 -1 19 -3 4 -6 -2 -5 -13z M3961
1554 c0 -11 3 -14 6 -6 3 7 2 16 -1 19 -3 4 -6 -2 -5 -13z M3762 1530 c0 -14
2 -19 5 -12 2 6 2 18 0 25 -3 6 -5 1 -5 -13z M3951 1484 c0 -11 3 -14 6 -6 3
7 2 16 -1 19 -3 4 -6 -2 -5 -13z M3771 1464 c0 -11 3 -14 6 -6 3 7 2 16 -1 19
-3 4 -6 -2 -5 -13z M3941 1434 c0 -11 3 -14 6 -6 3 7 2 16 -1 19 -3 4 -6 -2
-5 -13z M3781 1394 c0 -11 3 -14 6 -6 3 7 2 16 -1 19 -3 4 -6 -2 -5 -13z
M3931 1374 c0 -11 3 -14 6 -6 3 7 2 16 -1 19 -3 4 -6 -2 -5 -13z"/>
</g>
<g transform="translate(0.000000,1410.000000) scale(0.100000,-0.100000)">
<path fill="#0b0b0b" fill-rule="evenodd" d="M5745 10504 c-11 -2 -45 -9 -75 -15 -159 -32 -266 -127 -320 -285
-28 -81 -143 -633 -174 -834 -36 -238 -40 -284 -27 -309 14 -26 56 -44 81 -36
23 7 28 20 51 124 10 46 37 121 58 165 104 212 246 283 515 257 228 -22 416
-72 577 -152 121 -61 228 -159 272 -248 47 -96 34 -149 -63 -247 -147 -149
-394 -261 -750 -338 -85 -19 -231 -50 -325 -71 -218 -47 -345 -89 -521 -174
-337 -163 -583 -387 -787 -719 -264 -429 -381 -817 -527 -1747 l-20 -130 -111
-115 c-507 -526 -776 -1123 -958 -2130 -49 -270 -81 -530 -81 -655 0 -56 26
-118 52 -123 20 -4 19 -8 48 178 113 719 369 1262 822 1745 l85 90 -5 -500
c-6 -640 9 -962 73 -1600 35 -341 78 -704 125 -1050 47 -337 58 -401 75 -415
41 -34 69 43 115 308 17 97 47 269 67 382 44 248 47 377 15 605 -116 812 -173
1474 -197 2280 l-6 201 83 59 c269 194 654 421 1193 702 127 66 330 173 453
237 602 315 866 495 1191 811 376 367 625 728 1041 1513 131 247 153 308 214
584 80 361 126 659 107 688 -14 20 -21 9 -117 -165 -269 -488 -327 -585 -495
-835 -202 -299 -357 -488 -589 -718 -239 -237 -427 -391 -680 -558 -196 -129
-362 -220 -840 -464 -784 -399 -1150 -618 -1480 -884 -25 -20 -48 -36 -52 -36
-18 0 36 232 90 390 196 570 534 954 1004 1141 136 54 375 121 658 184 408 92
499 119 642 190 152 77 303 209 394 347 92 140 175 401 244 767 16 86 38 197
49 246 71 325 87 619 43 785 -69 260 -214 402 -501 490 -117 36 -263 65 -393
79 -93 10 -300 13 -343 5z"/>
</g>
</svg>